<svg width="30" height="30" viewBox="0 0 30 30" fill="none" xmlns="http://www.w3.org/2000/svg">
    <g class="page-logo__star">
        <path d="M16.0147 9.51828C16.6735 9.51828 17.0029 9.51828 17.1864 9.30922C17.37 9.10016 17.3237 8.77722 17.231 8.13134L16.2206 1.09292C16.1485 0.594908 16.1125 0.345053 15.9409 0.19718C15.7677 0.0476074 15.5138 0.0476074 15.006 0.0476074H14.2426C13.7348 0.0476074 13.4809 0.0476074 13.3076 0.19718C13.1343 0.346753 13.0983 0.594908 13.028 1.09292L12.0158 8.13134C11.9232 8.77722 11.8769 9.10016 12.0604 9.30922C12.244 9.51828 12.5734 9.51828 13.2321 9.51828H16.0147Z" fill="#FF6C37"></path>
        <path d="M9.8856 11.9268C10.0897 11.3064 10.191 10.997 10.0469 10.7591C9.90276 10.5211 9.57852 10.465 8.93005 10.3529L1.86035 9.12908C1.35942 9.0424 1.10895 8.9999 0.913379 9.11548C0.717809 9.23276 0.638895 9.47242 0.481066 9.95003L0.246038 10.6707C0.0882096 11.15 0.0110107 11.388 0.100218 11.597C0.189426 11.8061 0.417591 11.9166 0.873922 12.1375L7.31745 15.265C7.90931 15.5522 8.20438 15.695 8.46171 15.5862C8.71904 15.4774 8.82197 15.1681 9.0244 14.5477L9.8856 11.9268Z" fill="#FF6C37"></path>
        <path d="M10.3036 18.4469C9.7718 18.0627 9.50418 17.8724 9.23141 17.9353C8.95864 17.9981 8.80424 18.2854 8.49717 18.8633L5.13816 25.1436C4.8997 25.589 4.78133 25.8116 4.83279 26.0326C4.88426 26.2535 5.09012 26.4014 5.50185 26.6972L6.11944 27.1408C6.53117 27.4365 6.73532 27.5844 6.96348 27.5657C7.19165 27.5453 7.36835 27.3651 7.72175 27.0031L12.7139 21.8972C13.172 21.4281 13.4002 21.1953 13.3761 20.9182C13.3521 20.6412 13.0862 20.4508 12.5527 20.0667L10.3036 18.4469Z" fill="#FF6C37"></path>
        <path d="M16.6886 20.0683C16.1568 20.4525 15.8892 20.6428 15.8652 20.9199C15.8411 21.1969 16.0693 21.4298 16.5274 21.8989L21.5196 27.0048C21.8729 27.3668 22.0497 27.547 22.2778 27.5674C22.506 27.5878 22.7118 27.4399 23.1219 27.1424L23.7394 26.6988C24.1512 26.4031 24.3553 26.2552 24.4085 26.0342C24.4617 25.8133 24.3416 25.5906 24.1031 25.1453L20.7476 18.8632C20.4388 18.287 20.2861 17.9981 20.0133 17.9369C19.7405 17.874 19.4746 18.0661 18.9411 18.4485L16.6886 20.0683Z" fill="#FF6C37"></path>
        <path d="M20.2222 14.5511C20.4263 15.1714 20.5275 15.4808 20.7849 15.5896C21.0422 15.6984 21.339 15.5539 21.9291 15.2666L28.3727 12.1392C28.829 11.9182 29.0572 11.8078 29.1464 11.5987C29.2356 11.3896 29.1567 11.15 29.0005 10.6724L28.7655 9.9534C28.6077 9.47408 28.5305 9.23613 28.3332 9.11885C28.1376 9.00157 27.8872 9.04576 27.3862 9.13245L20.3183 10.3562C19.6698 10.4684 19.3455 10.5245 19.2014 10.7624C19.0573 11.0004 19.1586 11.3098 19.3627 11.9301L20.2222 14.5511Z" fill="#FF6C37"></path>
    </g>
</svg>